name C:\Users\u0101727\Documents\MyRepositories\upper-imu-dc\OpenSim\subject0\MA\MA_Splines\angle_in_n6_dof6_3.mot
datacolumns 7
datarows 40
range 350.01000000 350.40000000
endheader 
time	clav_prot	clav_elev	scapula_abduction	scapula_elevation	scapula_upward_rot	scapula_winging	
        350.01000000	        -36.17913537	         -2.74924671	        -37.40470623	         -7.82036939	         54.58874201	          2.02322237	
        350.02000000	        -29.75473540	         -2.74924671	        -37.40470623	         -7.82036939	         54.58874201	          2.02322237	
        350.03000000	        -23.33033544	         -2.74924671	        -37.40470623	         -7.82036939	         54.58874201	          2.02322237	
        350.04000000	        -16.90593547	         -2.74924671	        -37.40470623	         -7.82036939	         54.58874201	          2.02322237	
        350.05000000	        -49.02793530	          2.15399008	        -37.40470623	         -7.82036939	         54.58874201	          2.02322237	
        350.06000000	        -42.60353533	          2.15399008	        -37.40470623	         -7.82036939	         54.58874201	          2.02322237	
        350.07000000	        -36.17913537	          2.15399008	        -37.40470623	         -7.82036939	         54.58874201	          2.02322237	
        350.08000000	        -29.75473540	          2.15399008	        -37.40470623	         -7.82036939	         54.58874201	          2.02322237	
        350.09000000	        -23.33033544	          2.15399008	        -37.40470623	         -7.82036939	         54.58874201	          2.02322237	
        350.10000000	        -16.90593547	          2.15399008	        -37.40470623	         -7.82036939	         54.58874201	          2.02322237	
        350.11000000	        -49.02793530	          7.05722688	        -37.40470623	         -7.82036939	         54.58874201	          2.02322237	
        350.12000000	        -42.60353533	          7.05722688	        -37.40470623	         -7.82036939	         54.58874201	          2.02322237	
        350.13000000	        -36.17913537	          7.05722688	        -37.40470623	         -7.82036939	         54.58874201	          2.02322237	
        350.14000000	        -29.75473540	          7.05722688	        -37.40470623	         -7.82036939	         54.58874201	          2.02322237	
        350.15000000	        -23.33033544	          7.05722688	        -37.40470623	         -7.82036939	         54.58874201	          2.02322237	
        350.16000000	        -16.90593547	          7.05722688	        -37.40470623	         -7.82036939	         54.58874201	          2.02322237	
        350.17000000	        -49.02793530	         11.96046367	        -37.40470623	         -7.82036939	         54.58874201	          2.02322237	
        350.18000000	        -42.60353533	         11.96046367	        -37.40470623	         -7.82036939	         54.58874201	          2.02322237	
        350.19000000	        -36.17913537	         11.96046367	        -37.40470623	         -7.82036939	         54.58874201	          2.02322237	
        350.20000000	        -29.75473540	         11.96046367	        -37.40470623	         -7.82036939	         54.58874201	          2.02322237	
        350.21000000	        -23.33033544	         11.96046367	        -37.40470623	         -7.82036939	         54.58874201	          2.02322237	
        350.22000000	        -16.90593547	         11.96046367	        -37.40470623	         -7.82036939	         54.58874201	          2.02322237	
        350.23000000	        -49.02793530	         16.86370047	        -37.40470623	         -7.82036939	         54.58874201	          2.02322237	
        350.24000000	        -42.60353533	         16.86370047	        -37.40470623	         -7.82036939	         54.58874201	          2.02322237	
        350.25000000	        -36.17913537	         16.86370047	        -37.40470623	         -7.82036939	         54.58874201	          2.02322237	
        350.26000000	        -29.75473540	         16.86370047	        -37.40470623	         -7.82036939	         54.58874201	          2.02322237	
        350.27000000	        -23.33033544	         16.86370047	        -37.40470623	         -7.82036939	         54.58874201	          2.02322237	
        350.28000000	        -16.90593547	         16.86370047	        -37.40470623	         -7.82036939	         54.58874201	          2.02322237	
        350.29000000	        -49.02793530	         -7.65248351	        -27.66618321	         -7.82036939	         54.58874201	          2.02322237	
        350.30000000	        -42.60353533	         -7.65248351	        -27.66618321	         -7.82036939	         54.58874201	          2.02322237	
        350.31000000	        -36.17913537	         -7.65248351	        -27.66618321	         -7.82036939	         54.58874201	          2.02322237	
        350.32000000	        -29.75473540	         -7.65248351	        -27.66618321	         -7.82036939	         54.58874201	          2.02322237	
        350.33000000	        -23.33033544	         -7.65248351	        -27.66618321	         -7.82036939	         54.58874201	          2.02322237	
        350.34000000	        -16.90593547	         -7.65248351	        -27.66618321	         -7.82036939	         54.58874201	          2.02322237	
        350.35000000	        -49.02793530	         -2.74924671	        -27.66618321	         -7.82036939	         54.58874201	          2.02322237	
        350.36000000	        -42.60353533	         -2.74924671	        -27.66618321	         -7.82036939	         54.58874201	          2.02322237	
        350.37000000	        -36.17913537	         -2.74924671	        -27.66618321	         -7.82036939	         54.58874201	          2.02322237	
        350.38000000	        -29.75473540	         -2.74924671	        -27.66618321	         -7.82036939	         54.58874201	          2.02322237	
        350.39000000	        -23.33033544	         -2.74924671	        -27.66618321	         -7.82036939	         54.58874201	          2.02322237	
        350.40000000	        -16.90593547	         -2.74924671	        -27.66618321	         -7.82036939	         54.58874201	          2.02322237	
